<svg data-v-136a5e7a="" data-v-5172af52="" width="40" height="40" viewBox="0 0 40 40" fill="none" xmlns="http://www.w3.org/2000/svg"><path data-v-136a5e7a="" d="M25.0252 22.1851C25.4998 22.8463 26.0443 23.274 26.6581 23.4677C26.3919 24.277 25.9691 25.1207 25.3898 25.9989C24.4982 27.3213 23.6178 27.983 22.749 27.983C22.4246 27.983 21.9442 27.8743 21.3071 27.6578C20.7161 27.4412 20.2008 27.333 19.7605 27.333C19.3208 27.333 18.834 27.4471 18.3012 27.6748C17.7456 27.8917 17.2879 28 16.9287 28C15.8863 28 14.8614 27.1276 13.8539 25.3833C12.846 23.6614 12.3423 21.9686 12.3423 20.3035C12.3423 18.7645 12.7243 17.5047 13.4889 16.5241C14.2767 15.5435 15.2493 15.0532 16.4075 15.0532C16.6625 15.0532 16.9462 15.0845 17.2589 15.1471C17.5716 15.2102 17.8959 15.3269 18.2319 15.4978C18.5911 15.6916 18.8864 15.8258 19.1181 15.8996C19.3494 15.9738 19.5293 16.011 19.6568 16.011C19.8071 16.011 20.0388 15.9765 20.3515 15.9081C20.6821 15.8328 20.9987 15.7058 21.2897 15.5318C21.6256 15.3498 21.9151 15.2129 22.1584 15.1216C22.3971 15.0311 22.6503 14.9848 22.9055 14.9847C23.7162 14.9847 24.4458 15.2012 25.0945 15.6347C25.4421 15.8629 25.7951 16.1989 26.1543 16.6436C25.6215 17.0999 25.2337 17.4989 24.9903 17.8412C24.5384 18.4791 24.3125 19.1748 24.3125 19.9272C24.3125 20.7598 24.5501 21.5123 25.0252 22.1851ZM21.533 14.1982C21.1277 14.5745 20.7568 14.8192 20.4209 14.9337C20.2753 14.9741 20.1274 15.0055 19.978 15.0277C19.7986 15.0558 19.5928 15.0818 19.361 15.1046C19.3727 14.1012 19.6393 13.2346 20.1605 12.5049C20.6817 11.7753 21.5388 11.2733 22.7315 11C22.7548 11.1141 22.7722 11.1937 22.7839 11.2393V11.4277C22.7839 11.8379 22.6854 12.2996 22.4886 12.8127C22.2801 13.3142 21.9616 13.7764 21.533 14.1982Z" fill="black"></path><rect data-v-136a5e7a="" x="0.5" y="0.5" width="39" height="39" rx="19.5" stroke="black" stroke-opacity="0.24"></rect></svg>