<?xml version="1.0" encoding="UTF-8" standalone="no"?>
<!DOCTYPE svg PUBLIC "-//W3C//DTD SVG 1.1//EN" "http://www.w3.org/Graphics/SVG/1.1/DTD/svg11.dtd">
<!-- Created with Vectornator (http://vectornator.io/) -->
<svg height="100%" stroke-miterlimit="10" style="fill-rule:nonzero;clip-rule:evenodd;stroke-linecap:round;stroke-linejoin:round;" version="1.1" viewBox="0 0 321 188" width="100%" xml:space="preserve" xmlns="http://www.w3.org/2000/svg" xmlns:vectornator="http://vectornator.io" xmlns:xlink="http://www.w3.org/1999/xlink">
<defs>
<path d="M49.8685 78.1365L276.796 78.1365L276.796 97.2328L49.8685 97.2328L49.8685 78.1365Z" id="Fill"/>
</defs>
<g id="Untitled" vectornator:layerName="Untitled">
<path d="M159.583 151.429L159.583 36.2084" fill="none" opacity="1" stroke="#ffffff" stroke-linecap="butt" stroke-linejoin="miter" stroke-width="0.992958" vectornator:layerName="path"/>
<path d="M177.401 123.527L196.933 123.527L196.933 122.802C190.69 122.802 190.255 117.647 190.255 103.343L190.255 52.8151C194.684 51.2142 198.166 50.4889 203.538 50.4889C217.045 50.4889 225.536 57.8974 225.536 69.9479C225.536 78.662 219.656 87.5885 210.584 87.5885C203.828 87.5885 200.492 83.449 196.207 83.449C194.902 83.449 193.664 84.1795 193.664 85.9202C193.664 90.8575 201.362 91.1476 208.403 101.748C219.873 118.953 221.909 123.527 225.246 123.527L236.358 123.527L236.358 122.802C228.08 122.802 221.329 109.876 215.594 100.95C209.714 91.8004 194.394 90.785 194.394 86.0653C194.394 84.3971 195.627 84.1795 196.498 84.1795C199.549 84.1795 204.191 88.8215 211.019 88.8215C223.65 88.8215 231.784 79.8225 231.784 69.8754C231.784 58.0425 223.142 49.4735 207.678 49.4735C199.259 49.4735 194.104 50.9241 186.115 50.9241L177.401 50.9241L177.401 51.6494C183.649 51.6494 184.084 56.8043 184.084 71.1084L184.084 103.343C184.084 117.647 183.649 122.802 177.401 122.802L177.401 123.527Z" fill="#ffffff" fill-rule="nonzero" opacity="1" stroke="none" vectornator:layerName="path"/>
<path d="M78.2051 84.8827C78.2051 102.394 87.0643 116.879 103.197 116.879C112.118 116.879 118.506 107.953 118.506 99.1661C118.506 83.9916 100.244 73.5576 100.244 60.7196C100.244 59.1395 100.653 56.9428 102.301 56.2589L102.099 55.8445C100.451 55.8445 96.9492 59.756 96.9492 65.3875C96.9492 80.1475 114.662 87.0846 114.662 104.176C114.662 111.864 108.207 116.19 103.332 116.19C89.0537 116.19 84.5205 98.5496 84.5205 85.0226C84.5205 64.9782 94.68 50.1456 108.896 50.1456C123.107 50.1456 133.266 64.9782 133.266 85.0226C133.266 102.803 126.604 112.004 109.305 122.578C105.803 124.702 104.088 127.246 104.088 127.246L104.57 127.795C106.078 126.49 107.865 125.801 109.647 125.801C120.428 125.801 127.36 138.571 139.167 138.571C145.83 138.571 152.762 134.452 152.762 128.412C152.762 127.93 152.554 127.246 152.145 126.971C151.114 130.266 147.887 132.805 143.975 132.805C127.153 132.805 119.672 124.977 110.269 124.977C108.482 124.977 107.109 125.526 105.736 126.282C108.274 123.811 112.051 122.438 115.621 120.516C126.469 114.683 139.307 106.031 139.307 84.8827C139.307 64.2891 125.853 49.1872 108.756 49.1872C91.6596 49.1872 78.2051 64.2891 78.2051 84.8827Z" fill="#ffffff" fill-rule="nonzero" opacity="1" stroke="none" vectornator:layerName="path"/>
<g opacity="1" vectornator:layerName="path">
<use fill="#000000" fill-rule="nonzero" opacity="1" stroke="none" vectornator:layerName="path" xlink:href="#Fill"/>
<clipPath clip-rule="nonzero" id="ClipPath">
<use xlink:href="#Fill"/>
</clipPath>
<g clip-path="url(#ClipPath)">
<path d="M49.8685 78.1365L276.789 78.1365L276.789 97.2328L49.8685 97.2328L49.8685 78.1365Z" fill="#000000" fill-rule="nonzero" opacity="1" stroke="none" vectornator:layerName="path"/>
</g>
</g>
<path d="M63.4627 91.0357C63.2399 91.3103 62.9705 91.5227 62.6545 91.6782C62.3333 91.8284 61.9914 91.9061 61.6184 91.9061C61.1728 91.9061 60.7532 91.7921 60.3543 91.5745C59.9502 91.3518 59.5046 90.9788 59.0073 90.4555C58.2716 90.44 57.6084 90.2638 57.0178 89.9167C56.4376 89.5748 55.9817 89.1189 55.6501 88.549C55.3185 87.9687 55.1528 87.3211 55.1528 86.601C55.1528 85.8705 55.3237 85.2126 55.6708 84.6323C56.0128 84.0417 56.4894 83.5754 57.1007 83.2439C57.7069 82.9123 58.3907 82.7465 59.1523 82.7465C59.8983 82.7465 60.5667 82.9123 61.1625 83.2439C61.7686 83.5754 62.2452 84.0417 62.5924 84.6323C62.9498 85.2126 63.1312 85.8705 63.1312 86.601C63.1312 87.2382 62.9913 87.8237 62.7167 88.3625C62.4525 88.8909 62.0846 89.3313 61.6184 89.6887C61.1469 90.0359 60.6029 90.2638 59.9812 90.3726C60.5459 90.9632 61.1003 91.2637 61.6391 91.2637C62.2038 91.2637 62.6856 91.0254 63.0897 90.5591L63.4627 91.0357ZM55.9402 86.601C55.9402 87.1968 56.0749 87.7356 56.3547 88.2174C56.6448 88.6889 57.0282 89.0619 57.5152 89.3365C57.997 89.6162 58.541 89.7509 59.1523 89.7509C59.7429 89.7509 60.2817 89.6162 60.7687 89.3365C61.2505 89.0619 61.6287 88.6889 61.9085 88.2174C62.1831 87.7356 62.323 87.1968 62.323 86.601C62.323 86.0104 62.1831 85.4768 61.9085 85.0053C61.6287 84.5235 61.2505 84.1453 60.7687 83.8656C60.2817 83.591 59.7429 83.4511 59.1523 83.4511C58.541 83.4511 57.997 83.591 57.5152 83.8656C57.0282 84.1453 56.6448 84.5235 56.3547 85.0053C56.0749 85.4768 55.9402 86.0104 55.9402 86.601Z" fill="#c4a668" fill-rule="nonzero" opacity="1" stroke="none" vectornator:layerName="path"/>
<path d="M72.0521 90.4555C71.0677 90.4555 70.301 90.1809 69.7518 89.6266C69.1975 89.0619 68.9229 88.2381 68.9229 87.1605L68.9229 82.8087L69.7311 82.8087L69.7311 87.1191C69.7311 88.005 69.9279 88.6681 70.332 89.1085C70.731 89.5385 71.306 89.7509 72.0521 89.7509C72.8085 89.7509 73.3887 89.5385 73.7928 89.1085C74.1917 88.6681 74.3938 88.005 74.3938 87.1191L74.3938 82.8087L75.1605 82.8087L75.1605 87.1605C75.1605 88.2381 74.8808 89.0619 74.3316 89.6266C73.7928 90.1809 73.0312 90.4555 72.0521 90.4555Z" fill="#c4a668" fill-rule="nonzero" opacity="1" stroke="none" vectornator:layerName="path"/>
<path d="M86.8467 90.3933L85.106 87.948C84.9091 87.9791 84.7122 87.9894 84.505 87.9894L82.4534 87.9894L82.4534 90.3933L81.6659 90.3933L81.6659 82.8087L84.505 82.8087C85.4686 82.8087 86.225 83.047 86.7638 83.5133C87.313 83.9692 87.5927 84.6012 87.5927 85.3991C87.5927 85.9949 87.4373 86.4974 87.1368 86.9118C86.8467 87.3159 86.4219 87.6061 85.8727 87.7822L87.7171 90.3933L86.8467 90.3933ZM84.4843 87.3056C85.2303 87.3056 85.8002 87.1398 86.2043 86.8082C86.6032 86.4767 86.8052 86.0104 86.8052 85.3991C86.8052 84.7929 86.6032 84.3215 86.2043 83.9899C85.8002 83.6583 85.2303 83.4925 84.4843 83.4925L82.4534 83.4925L82.4534 87.3056L84.4843 87.3056Z" fill="#c4a668" fill-rule="nonzero" opacity="1" stroke="none" vectornator:layerName="path"/>
<path d="M98.3244 88.3625L94.0969 88.3625L93.1851 90.3933L92.3561 90.3933L95.8169 82.8087L96.6251 82.8087L100.086 90.3933L99.2362 90.3933L98.3244 88.3625ZM98.0343 87.72L96.2106 83.6376L94.387 87.72L98.0343 87.72Z" fill="#c4a668" fill-rule="nonzero" opacity="1" stroke="none" vectornator:layerName="path"/>
<path d="M108.017 87.7615L108.017 90.3933L107.23 90.3933L107.23 87.7615L104.204 82.8087L105.054 82.8087L107.644 87.0569L110.255 82.8087L111.063 82.8087L108.017 87.7615Z" fill="#c4a668" fill-rule="nonzero" opacity="1" stroke="none" vectornator:layerName="path"/>
<path d="M117.858 83.4925L115.185 83.4925L115.185 82.8087L121.319 82.8087L121.319 83.4925L118.645 83.4925L118.645 90.3933L117.858 90.3933L117.858 83.4925Z" fill="#c4a668" fill-rule="nonzero" opacity="1" stroke="none" vectornator:layerName="path"/>
<path d="M126.686 82.8087L127.473 82.8087L127.473 90.3933L126.686 90.3933L126.686 82.8087Z" fill="#c4a668" fill-rule="nonzero" opacity="1" stroke="none" vectornator:layerName="path"/>
<path d="M140.381 82.8087L140.381 90.3933L139.717 90.3933L134.827 84.2386L134.827 90.3933L134.039 90.3933L134.039 82.8087L134.702 82.8087L139.572 88.9634L139.572 82.8087L140.381 82.8087Z" fill="#c4a668" fill-rule="nonzero" opacity="1" stroke="none" vectornator:layerName="path"/>
<path d="M152.253 86.601L153.04 86.601L153.04 89.5022C152.677 89.8079 152.258 90.041 151.776 90.2068C151.289 90.3726 150.781 90.4555 150.243 90.4555C149.481 90.4555 148.797 90.2897 148.191 89.9581C147.58 89.6266 147.103 89.1707 146.761 88.5904C146.414 87.9998 146.243 87.3367 146.243 86.601C146.243 85.8705 146.414 85.2126 146.761 84.6323C147.103 84.0417 147.58 83.5754 148.191 83.2439C148.797 82.9123 149.486 82.7465 150.263 82.7465C150.843 82.7465 151.372 82.8398 151.859 83.0159C152.341 83.1972 152.75 83.4718 153.082 83.8448L152.584 84.3422C151.973 83.7516 151.206 83.4511 150.284 83.4511C149.673 83.4511 149.123 83.591 148.626 83.8656C148.129 84.1453 147.735 84.5235 147.445 85.0053C147.165 85.4768 147.03 86.0104 147.03 86.601C147.03 87.1968 147.165 87.7356 147.445 88.2174C147.735 88.6889 148.118 89.0619 148.605 89.3365C149.103 89.6162 149.662 89.7509 150.284 89.7509C151.056 89.7509 151.714 89.554 152.253 89.1499L152.253 86.601Z" fill="#c4a668" fill-rule="nonzero" opacity="1" stroke="none" vectornator:layerName="path"/>
<path d="M167.773 83.4925L165.1 83.4925L165.1 82.8087L171.234 82.8087L171.234 83.4925L168.56 83.4925L168.56 90.3933L167.773 90.3933L167.773 83.4925Z" fill="#c4a668" fill-rule="nonzero" opacity="1" stroke="none" vectornator:layerName="path"/>
<path d="M182.942 82.8087L182.942 90.3933L182.134 90.3933L182.134 86.8911L177.388 86.8911L177.388 90.3933L176.601 90.3933L176.601 82.8087L177.388 82.8087L177.388 86.1865L182.134 86.1865L182.134 82.8087L182.942 82.8087Z" fill="#c4a668" fill-rule="nonzero" opacity="1" stroke="none" vectornator:layerName="path"/>
<path d="M192.804 90.4555C192.042 90.4555 191.359 90.2897 190.752 89.9581C190.141 89.6162 189.664 89.1499 189.323 88.5697C188.975 87.9894 188.804 87.3367 188.804 86.601C188.804 85.8705 188.975 85.2126 189.323 84.6323C189.664 84.0417 190.141 83.5754 190.752 83.2439C191.359 82.9123 192.042 82.7465 192.804 82.7465C193.55 82.7465 194.218 82.9123 194.814 83.2439C195.42 83.5754 195.897 84.0417 196.244 84.6323C196.602 85.2126 196.783 85.8705 196.783 86.601C196.783 87.3367 196.602 87.9998 196.244 88.5904C195.897 89.1707 195.42 89.6266 194.814 89.9581C194.218 90.2897 193.55 90.4555 192.804 90.4555ZM192.804 89.7509C193.395 89.7509 193.933 89.6162 194.42 89.3365C194.902 89.0619 195.28 88.6889 195.56 88.2174C195.835 87.7356 195.975 87.1968 195.975 86.601C195.975 86.0104 195.835 85.4768 195.56 85.0053C195.28 84.5235 194.902 84.1453 194.42 83.8656C193.933 83.591 193.395 83.4511 192.804 83.4511C192.193 83.4511 191.649 83.591 191.167 83.8656C190.68 84.1453 190.297 84.5235 190.006 85.0053C189.727 85.4768 189.592 86.0104 189.592 86.601C189.592 87.1968 189.727 87.7356 190.006 88.2174C190.297 88.6889 190.68 89.0619 191.167 89.3365C191.649 89.6162 192.193 89.7509 192.804 89.7509Z" fill="#c4a668" fill-rule="nonzero" opacity="1" stroke="none" vectornator:layerName="path"/>
<path d="M205.704 90.4555C204.719 90.4555 203.953 90.1809 203.403 89.6266C202.849 89.0619 202.575 88.2381 202.575 87.1605L202.575 82.8087L203.383 82.8087L203.383 87.1191C203.383 88.005 203.58 88.6681 203.984 89.1085C204.383 89.5385 204.958 89.7509 205.704 89.7509C206.46 89.7509 207.04 89.5385 207.444 89.1085C207.843 88.6681 208.045 88.005 208.045 87.1191L208.045 82.8087L208.812 82.8087L208.812 87.1605C208.812 88.2381 208.532 89.0619 207.983 89.6266C207.444 90.1809 206.683 90.4555 205.704 90.4555Z" fill="#c4a668" fill-rule="nonzero" opacity="1" stroke="none" vectornator:layerName="path"/>
<path d="M220.643 86.601L221.431 86.601L221.431 89.5022C221.068 89.8079 220.649 90.041 220.167 90.2068C219.68 90.3726 219.172 90.4555 218.633 90.4555C217.872 90.4555 217.188 90.2897 216.582 89.9581C215.97 89.6266 215.494 89.1707 215.152 88.5904C214.805 87.9998 214.634 87.3367 214.634 86.601C214.634 85.8705 214.805 85.2126 215.152 84.6323C215.494 84.0417 215.97 83.5754 216.582 83.2439C217.188 82.9123 217.877 82.7465 218.654 82.7465C219.234 82.7465 219.763 82.8398 220.25 83.0159C220.731 83.1972 221.141 83.4718 221.472 83.8448L220.975 84.3422C220.364 83.7516 219.597 83.4511 218.675 83.4511C218.063 83.4511 217.514 83.591 217.017 83.8656C216.52 84.1453 216.126 84.5235 215.836 85.0053C215.556 85.4768 215.421 86.0104 215.421 86.601C215.421 87.1968 215.556 87.7356 215.836 88.2174C216.126 88.6889 216.509 89.0619 216.996 89.3365C217.494 89.6162 218.053 89.7509 218.675 89.7509C219.447 89.7509 220.105 89.554 220.643 89.1499L220.643 86.601Z" fill="#c4a668" fill-rule="nonzero" opacity="1" stroke="none" vectornator:layerName="path"/>
<path d="M234.113 82.8087L234.113 90.3933L233.305 90.3933L233.305 86.8911L228.559 86.8911L228.559 90.3933L227.772 90.3933L227.772 82.8087L228.559 82.8087L228.559 86.1865L233.305 86.1865L233.305 82.8087L234.113 82.8087Z" fill="#c4a668" fill-rule="nonzero" opacity="1" stroke="none" vectornator:layerName="path"/>
<path d="M242.131 83.4925L239.458 83.4925L239.458 82.8087L245.592 82.8087L245.592 83.4925L242.918 83.4925L242.918 90.3933L242.131 90.3933L242.131 83.4925Z" fill="#c4a668" fill-rule="nonzero" opacity="1" stroke="none" vectornator:layerName="path"/>
<path d="M253.052 90.4555C252.482 90.4555 251.938 90.3674 251.415 90.1861C250.902 90.01 250.508 89.7716 250.233 89.4815L250.544 88.8598C250.819 89.1396 251.187 89.3572 251.643 89.523C252.099 89.6887 252.565 89.7716 253.052 89.7716C253.725 89.7716 254.233 89.6473 254.565 89.3986C254.907 89.1499 255.083 88.8287 255.083 88.4246C255.083 88.1241 254.984 87.8807 254.793 87.6993C254.611 87.5232 254.388 87.3833 254.129 87.2849C253.865 87.1916 253.492 87.088 253.01 86.974C252.44 86.8238 251.985 86.6839 251.643 86.5596C251.311 86.4249 251.021 86.2176 250.772 85.9379C250.524 85.6633 250.399 85.2903 250.399 84.8188C250.399 84.4354 250.503 84.0883 250.71 83.7827C250.917 83.4666 251.228 83.218 251.643 83.0366C252.057 82.8449 252.575 82.7465 253.197 82.7465C253.637 82.7465 254.067 82.8087 254.482 82.933C254.896 83.047 255.254 83.2024 255.559 83.4096L255.29 84.0521C254.969 83.8448 254.632 83.6946 254.274 83.5962C253.912 83.4874 253.554 83.4304 253.197 83.4304C252.534 83.4304 252.036 83.5651 251.705 83.8241C251.373 84.0728 251.207 84.3992 251.207 84.7981C251.207 85.1038 251.296 85.3524 251.477 85.5441C251.653 85.7254 251.881 85.8653 252.161 85.9586C252.451 86.057 252.829 86.1606 253.3 86.2694C253.85 86.4093 254.3 86.5492 254.647 86.6839C254.989 86.8238 255.28 87.031 255.518 87.3056C255.751 87.5698 255.87 87.9273 255.87 88.3832C255.87 88.7717 255.767 89.124 255.559 89.4401C255.352 89.7457 255.031 89.9944 254.606 90.1861C254.192 90.3674 253.674 90.4555 253.052 90.4555Z" fill="#c4a668" fill-rule="nonzero" opacity="1" stroke="none" vectornator:layerName="path"/>
</g>
</svg>
